<svg width="171" height="30" xmlns="http://www.w3.org/2000/svg" p-id="2880" version="1.1" class="icon" t="1700629134183">

 <g>
  <title>Layer 1</title>
  <path stroke="null" id="svg_1" p-id="2881" fill="#dbdbdb" d="m23.54387,10.07796l3.80132,0l0,2.83229l-3.80132,0l0,2.83229l-3.80132,0l0,-2.83229l-3.80132,0l0,-2.83229l3.80132,0l0,-2.83229l3.80132,0l0,2.83229z"/>
  <path stroke="null" id="svg_2" p-id="2882" fill="#dbdbdb" d="m9.0216,2.32808a1.7845,1.49502 0 0 1 1.7845,-1.49502l21.41404,0a1.7845,1.49502 0 0 1 1.7845,1.49502l0,7.47512l5.35351,0a1.7845,1.49502 0 0 1 1.7845,1.49502l0,16.44526a1.7845,1.49502 0 0 1 -1.7845,1.49502l-28.55206,0a1.7845,1.49502 0 0 1 -1.7845,-1.49502l0,-25.4154zm10.70702,23.92038l3.56901,0l0,-4.48507l-3.56901,0l0,4.48507zm7.13801,0l3.56901,0l0,-22.42536l-17.84504,0l0,22.42536l3.56901,0l0,-5.9801a1.7845,1.49502 0 0 1 1.7845,-1.49502l7.13801,0a1.7845,1.49502 0 0 1 1.7845,1.49502l0,5.9801zm7.13801,0l3.56901,0l0,-13.45521l-3.56901,0l0,13.45521z"/>
  <text font-weight="bold" font-style="normal" xml:space="preserve" text-anchor="start" font-family="'JetBrains Mono'" font-size="24" stroke-width="0" id="svg_3" y="24.27995" x="49.58019" stroke="null" fill="#DDDDDD">健康西科</text>
 </g>
</svg>